<svg width="48" height="47" viewBox="0 0 48 47" fill="none" xmlns="http://www.w3.org/2000/svg">
<path d="M47.1134 20.6569L25.6141 0.658421C24.6704 -0.219506 23.2474 -0.21941 22.3041 0.658326L0.804691 20.657C0.0487645 21.3602 -0.200934 22.4436 0.168372 23.4171C0.537772 24.3905 1.43717 25.0195 2.45983 25.0195H5.89364V45.0564C5.89364 45.8509 6.52463 46.495 7.30283 46.495H19.0871C19.8653 46.495 20.4963 45.851 20.4963 45.0564V32.8906H27.4221V45.0565C27.4221 45.851 28.0531 46.4951 28.8313 46.4951H40.6151C41.3933 46.4951 42.0242 45.8511 42.0242 45.0565V25.0195H45.4587C46.4813 25.0195 47.3808 24.3904 47.7502 23.4171C48.119 22.4435 47.8693 21.3602 47.1134 20.6569Z" fill="white"/>
<path d="M41.6561 2.87109H32.1924L43.0653 12.9637V4.30956C43.0653 3.51514 42.4344 2.87109 41.6561 2.87109Z" fill="white"/>
</svg>
