<svg width="29" height="32" viewBox="0 0 29 32" fill="none" xmlns="http://www.w3.org/2000/svg">
<path d="M26.923 4.69895V3.40496C26.923 1.92109 25.7883 0.713867 24.3937 0.713867C23.5619 0.713867 8.54987 0.713867 7.98134 0.713867C6.58668 0.713867 5.45204 1.92109 5.45204 3.40496V4.601H2.5293C1.13464 4.601 0 5.80822 0 7.29209V24.7543C0 26.2381 1.13464 27.4454 2.5293 27.4454H11.5145L11.0303 29.5384H9.89236C9.42675 29.5384 9.04926 29.9401 9.04926 30.4355C9.04926 30.9309 9.42675 31.3325 9.89236 31.3325H18.8854C19.351 31.3325 19.7285 30.9309 19.7285 30.4355C19.7285 29.9401 19.351 29.5384 18.8854 29.5384H17.7476L17.2634 27.4454H26.2485C27.6431 27.4454 28.7778 26.2381 28.7778 24.7543V7.29209C28.7778 6.0567 27.9911 5.01381 26.923 4.69895ZM27.0916 21.824H23.3257V6.39506H26.2485C26.7134 6.39506 27.0916 6.79746 27.0916 7.29209V21.824ZM25.2368 3.40496V4.601H23.3257V2.50793H24.3937C24.8585 2.50793 25.2368 2.91033 25.2368 3.40496ZM7.13824 3.40496C7.13824 2.91033 7.51645 2.50793 7.98134 2.50793H21.6395V21.824H7.13824V3.40496ZM2.5293 6.39506H5.45204V21.824H1.6862V7.29209C1.6862 6.79746 2.06441 6.39506 2.5293 6.39506ZM16.011 29.5384H12.7668L13.251 27.4454H15.5267L16.011 29.5384ZM26.2485 25.6513C18.0837 25.6513 11.1985 25.6513 2.5293 25.6513C2.06441 25.6513 1.6862 25.2489 1.6862 24.7543V23.618H27.0916V24.7543C27.0916 25.2489 26.7134 25.6513 26.2485 25.6513Z" fill="#E3E8EE"/>
<path d="M15.2884 12.1356H18.8856C19.3512 12.1356 19.7287 11.734 19.7287 11.2386V5.49762C19.7287 5.00222 19.3512 4.60059 18.8856 4.60059H15.2884C14.8228 4.60059 14.4453 5.00222 14.4453 5.49762V11.2386C14.4453 11.734 14.8228 12.1356 15.2884 12.1356ZM16.1315 6.39465H18.0425V10.3416H16.1315V6.39465Z" fill="#E3E8EE"/>
<path d="M9.89193 19.7903H18.885C19.3506 19.7903 19.7281 19.3887 19.7281 18.8933V15.066C19.7281 14.5706 19.3506 14.1689 18.885 14.1689H9.89193C9.42631 14.1689 9.04883 14.5706 9.04883 15.066V18.8933C9.04883 19.3887 9.42631 19.7903 9.89193 19.7903ZM10.735 15.963H18.0419V17.9963H10.735V15.963Z" fill="#E3E8EE"/>
<path d="M9.89193 7.35168H11.6905C12.1562 7.35168 12.5336 6.95005 12.5336 6.45465C12.5336 5.95925 12.1562 5.55762 11.6905 5.55762H9.89193C9.42631 5.55762 9.04883 5.95925 9.04883 6.45465C9.04883 6.95005 9.42631 7.35168 9.89193 7.35168Z" fill="#E3E8EE"/>
<path d="M9.89193 11.1788H11.6905C12.1562 11.1788 12.5336 10.7772 12.5336 10.2818C12.5336 9.7864 12.1562 9.38477 11.6905 9.38477H9.89193C9.42631 9.38477 9.04883 9.7864 9.04883 10.2818C9.04883 10.7772 9.42631 11.1788 9.89193 11.1788Z" fill="#E3E8EE"/>
</svg>
