<svg width="29" height="31" viewBox="0 0 29 31" fill="none" xmlns="http://www.w3.org/2000/svg">
<path d="M26.3598 0.307617H2.64062C1.24597 0.307617 0.111328 1.51484 0.111328 2.99871V24.5274C0.111328 26.0113 1.24597 27.2185 2.64062 27.2185H9.16874C10.1176 29.3381 12.1507 30.8066 14.5002 30.8066C16.8498 30.8066 18.8828 29.3381 19.8317 27.2185H26.3598C27.7545 27.2185 28.8891 26.0113 28.8891 24.5274V2.99871C28.8891 1.51484 27.7545 0.307617 26.3598 0.307617ZM2.64062 2.10168H26.3598C26.8247 2.10168 27.2029 2.50408 27.2029 2.99871V7.48386H1.79753V2.99871C1.79753 2.50408 2.17574 2.10168 2.64062 2.10168ZM14.5002 29.0126C12.1758 29.0126 10.2847 27.0005 10.2847 24.5274C10.2847 22.0543 12.1758 20.0423 14.5002 20.0423C16.8246 20.0423 18.7157 22.0543 18.7157 24.5274C18.7157 27.0005 16.8246 29.0126 14.5002 29.0126ZM26.3598 25.4245H20.3414C20.8521 21.6423 18.0895 18.2482 14.5002 18.2482C10.9212 18.2482 8.14674 21.6308 8.659 25.4245H2.64062C2.17574 25.4245 1.79753 25.022 1.79753 24.5274V9.27792H27.2029V24.5274C27.2029 25.022 26.8247 25.4245 26.3598 25.4245Z" fill="#E3E8EE"/>
<path d="M9.6464 11.0984C9.19461 10.9783 8.73692 11.2705 8.624 11.7511L8.24314 13.372L7.61414 12.3681C7.45777 12.1186 7.1945 11.9687 6.91262 11.9687C6.63075 11.9687 6.36747 12.1186 6.21111 12.3681L5.5821 13.372L5.20124 11.7511C5.08832 11.2705 4.63047 10.9779 4.17885 11.0984C3.72711 11.2186 3.45249 11.7056 3.56541 12.1862L4.40851 15.7743C4.48944 16.1188 4.75373 16.38 5.08254 16.4406C5.4114 16.5009 5.74279 16.3497 5.92794 16.0543L6.91262 14.4829L7.8973 16.0543C8.05536 16.3066 8.32003 16.4539 8.59871 16.4539C8.98451 16.4539 9.3227 16.1748 9.41679 15.7743L10.2599 12.1862C10.3728 11.7056 10.0981 11.2186 9.6464 11.0984Z" fill="#E3E8EE"/>
<path d="M17.2343 11.0984C16.7825 10.9783 16.3248 11.2705 16.2119 11.7511L15.831 13.372L15.202 12.3681C14.8685 11.8358 14.1323 11.8363 13.799 12.3681L13.17 13.372L12.7891 11.7511C12.6762 11.2705 12.2185 10.9779 11.7667 11.0984C11.315 11.2186 11.0404 11.7056 11.1533 12.1862L11.9964 15.7743C12.0773 16.1188 12.3416 16.38 12.6704 16.4406C12.9992 16.5009 13.3307 16.3497 13.5158 16.0543L14.5005 14.4829L15.4852 16.0543C15.6433 16.3066 15.9079 16.4539 16.1866 16.4539C16.5724 16.4539 16.9106 16.1748 17.0047 15.7743L17.8478 12.1862C17.9607 11.7056 17.686 11.2186 17.2343 11.0984Z" fill="#E3E8EE"/>
<path d="M24.8222 11.0984C24.3704 10.9783 23.9127 11.2705 23.7998 11.7511L23.4189 13.372L22.7899 12.3681C22.4564 11.8358 21.7202 11.8363 21.3869 12.3681L20.7579 13.372L20.377 11.7511C20.2641 11.2705 19.8063 10.9779 19.3546 11.0984C18.9029 11.2186 18.6283 11.7056 18.7412 12.1862L19.5843 15.7743C19.6652 16.1188 19.9295 16.38 20.2583 16.4406C20.5871 16.5009 20.9186 16.3497 21.1037 16.0543L22.0884 14.4829L23.0731 16.0543C23.2563 16.3468 23.5857 16.5016 23.9185 16.4406C24.2473 16.38 24.5116 16.1188 24.5925 15.7743L25.4356 12.1862C25.5486 11.7056 25.2739 11.2186 24.8222 11.0984Z" fill="#E3E8EE"/>
<path d="M15.9272 22.9961L13.8254 25.2323L13.0164 24.3715C12.6872 24.0213 12.1533 24.0213 11.8241 24.3715C11.4948 24.7218 11.4948 25.2898 11.8241 25.6401L13.2293 27.1352C13.5585 27.4855 14.0923 27.4855 14.4216 27.1352L17.1195 24.2647C17.4487 23.9144 17.4487 23.3464 17.1195 22.9961C16.7903 22.6458 16.2564 22.6458 15.9272 22.9961Z" fill="#E3E8EE"/>
<path d="M4.38314 5.68957C4.84877 5.68957 5.22624 5.28795 5.22624 4.79254C5.22624 4.29712 4.84877 3.89551 4.38314 3.89551C3.91751 3.89551 3.54004 4.29712 3.54004 4.79254C3.54004 5.28795 3.91751 5.68957 4.38314 5.68957Z" fill="#E3E8EE"/>
<path d="M7.75521 5.68957C8.22084 5.68957 8.59831 5.28795 8.59831 4.79254C8.59831 4.29712 8.22084 3.89551 7.75521 3.89551C7.28958 3.89551 6.91211 4.29712 6.91211 4.79254C6.91211 5.28795 7.28958 5.68957 7.75521 5.68957Z" fill="#E3E8EE"/>
<path d="M11.1283 5.68957C11.5939 5.68957 11.9714 5.28795 11.9714 4.79254C11.9714 4.29712 11.5939 3.89551 11.1283 3.89551C10.6626 3.89551 10.2852 4.29712 10.2852 4.79254C10.2852 5.28795 10.6626 5.68957 11.1283 5.68957Z" fill="#E3E8EE"/>
<path d="M19.5589 5.68957H24.6175C25.0831 5.68957 25.4606 5.28794 25.4606 4.79254C25.4606 4.29714 25.0831 3.89551 24.6175 3.89551H19.5589C19.0933 3.89551 18.7158 4.29714 18.7158 4.79254C18.7158 5.28794 19.0933 5.68957 19.5589 5.68957Z" fill="#E3E8EE"/>
</svg>
