<svg width="31" height="33" viewBox="0 0 31 33" fill="none" xmlns="http://www.w3.org/2000/svg">
<path d="M28.944 20.709C29.4095 19.2229 29.6518 17.6505 29.6518 16.0383C29.6518 14.4262 29.4095 12.8537 28.944 11.3677C30.1869 10.1279 30.8884 8.41818 30.8884 6.57822C30.8884 2.95099 28.1148 0 24.7057 0C22.9763 0 21.3694 0.746409 20.2042 2.06876C18.8075 1.57345 17.3295 1.31564 15.8143 1.31564C14.2991 1.31564 12.8212 1.57345 11.4244 2.06876C10.2592 0.746409 8.6523 0 6.92296 0C3.51381 0 0.740234 2.95099 0.740234 6.57822C0.740234 8.41818 1.44171 10.1279 2.68461 11.3677C2.21908 12.8537 1.97678 14.4262 1.97678 16.0383C1.97678 17.6505 2.21908 19.2229 2.68461 20.709C1.44171 21.9488 0.740234 23.6585 0.740234 25.4984C0.740234 29.1257 3.51381 32.0767 6.92296 32.0767C8.6523 32.0767 10.2592 31.3302 11.4244 30.0079C12.8212 30.5032 14.2991 30.761 15.8143 30.761C17.3295 30.761 18.8075 30.5032 20.2042 30.0079C21.3694 31.3302 22.9763 32.0767 24.7057 32.0767C28.1148 32.0767 30.8884 29.1257 30.8884 25.4984C30.8884 23.6585 30.1869 21.9488 28.944 20.709ZM24.9475 24.4269L22.0223 21.3144C23.1112 19.867 23.7635 18.0323 23.7635 16.0383C23.7635 14.0444 23.1112 12.2097 22.0223 10.7622L24.9475 7.64978C26.7772 9.90185 27.8853 12.8349 27.8853 16.0383C27.8853 19.2417 26.7772 22.1748 24.9475 24.4269ZM6.68107 24.4269C4.85139 22.1748 3.74327 19.2417 3.74327 16.0383C3.74327 12.8349 4.85139 9.90185 6.68107 7.64978L9.60632 10.7622C8.5174 12.2097 7.86509 14.0444 7.86509 16.0383C7.86509 18.0323 8.5174 19.867 9.60632 21.3144L6.68107 24.4269ZM9.63158 16.0383C9.63158 12.4111 12.4052 9.46011 15.8143 9.46011C19.2235 9.46011 21.997 12.4111 21.997 16.0383C21.997 19.6656 19.2235 22.6165 15.8143 22.6165C12.4052 22.6165 9.63158 19.6656 9.63158 16.0383ZM24.7057 1.87949C27.1408 1.87949 29.1219 3.98734 29.1219 6.57822C29.1219 7.64082 28.7942 8.6429 28.1993 9.45603C27.5412 8.05763 26.6686 6.76592 25.5989 5.62789C24.5292 4.48985 23.3152 3.56139 22.0009 2.86115C22.765 2.22814 23.7069 1.87949 24.7057 1.87949ZM23.6985 6.32085L20.7733 9.43329C19.4128 8.27465 17.6884 7.58062 15.8143 7.58062C13.9402 7.58062 12.2158 8.27465 10.8554 9.43323L7.93016 6.32079C10.0468 4.37414 12.8035 3.19514 15.8143 3.19514C18.8251 3.19514 21.5818 4.37414 23.6985 6.32085ZM2.50673 6.57822C2.50673 3.98734 4.48785 1.87949 6.92296 1.87949C7.92174 1.87949 8.86357 2.22814 9.6277 2.86109C8.31343 3.56132 7.09937 4.48979 6.0297 5.62782C4.96003 6.76586 4.08744 8.05763 3.42931 9.45597C2.83441 8.6429 2.50673 7.64082 2.50673 6.57822ZM6.92296 30.1972C4.48785 30.1972 2.50673 28.0893 2.50673 25.4984C2.50673 24.4358 2.83441 23.4337 3.42931 22.6206C4.08744 24.019 4.96003 25.3107 6.0297 26.4488C7.09937 27.5868 8.31343 28.5153 9.6277 29.2155C8.86357 29.8485 7.92174 30.1972 6.92296 30.1972ZM7.9301 25.7558L10.8554 22.6434C12.2158 23.802 13.9402 24.496 15.8143 24.496C17.6884 24.496 19.4128 23.802 20.7732 22.6434L23.6985 25.7559C21.5818 27.7025 18.8251 28.8815 15.8143 28.8815C12.8035 28.8815 10.0468 27.7025 7.9301 25.7558ZM24.7057 30.1972C23.7069 30.1972 22.765 29.8485 22.0009 29.2156C23.3153 28.5153 24.5293 27.5869 25.5989 26.4488C26.6685 25.3107 27.5412 24.019 28.1993 22.6207C28.7942 23.4338 29.1219 24.4358 29.1219 25.4984C29.1219 28.0893 27.1408 30.1972 24.7057 30.1972Z" fill="#E3E8EE"/>
</svg>
