<svg width="29" height="30" viewBox="0 0 29 30" fill="none" xmlns="http://www.w3.org/2000/svg">
<path d="M27.4205 0.541992H1.57838C0.769451 0.541992 0.111328 1.24221 0.111328 2.10288V21.5212C0.111328 22.3829 0.769451 23.0839 1.57838 23.0839H9.16728V25.4223H6.34531C5.38531 25.4223 4.60426 26.2533 4.60426 27.2748V28.5309C4.60426 28.8612 4.85595 29.129 5.16632 29.129H23.8342C24.1445 29.129 24.3962 28.8612 24.3962 28.5309V27.2748C24.3962 26.2534 23.6145 25.4223 22.6536 25.4223H19.8332V23.0839H27.4205C28.2303 23.0839 28.8891 22.3829 28.8891 21.5212V2.10288C28.8891 1.24221 28.2303 0.541992 27.4205 0.541992ZM23.272 27.2747V27.9329H5.72839V27.2747C5.72839 26.9128 6.00515 26.6183 6.34531 26.6183H22.6536C22.9946 26.6183 23.272 26.9128 23.272 27.2747ZM18.7091 25.4223H10.2914V23.0838H18.7091V25.4223ZM27.4205 21.8878H1.57838C1.3925 21.8878 1.23546 21.7199 1.23546 21.5212V20.319H11.9758C12.2861 20.319 12.5378 20.0512 12.5378 19.721C12.5378 19.3907 12.2861 19.123 11.9758 19.123H1.23546V2.10288C1.23546 1.90512 1.3925 1.73803 1.57838 1.73803H27.4205C27.6073 1.73803 27.765 1.90512 27.765 2.10288V19.123H17.0231C16.7127 19.123 16.461 19.3907 16.461 19.721C16.461 20.0512 16.7127 20.319 17.0231 20.319H27.765V21.5212C27.765 21.7199 27.6072 21.8878 27.4205 21.8878Z" fill="#E3E8EE"/>
<path d="M25.2955 12.71H17.6783C17.3679 12.71 17.1162 12.9778 17.1162 13.308V17.0306C17.1162 17.3608 17.3679 17.6286 17.6783 17.6286H25.2955C25.6058 17.6286 25.8575 17.3608 25.8575 17.0306V13.308C25.8576 12.9778 25.6059 12.71 25.2955 12.71ZM24.7334 16.4326H18.2403V13.906H24.7334V16.4326H24.7334Z" fill="#E3E8EE"/>
<path d="M14.8735 8.58215H14.7937C14.6852 8.20803 14.5435 7.84533 14.3698 7.49716L14.4248 7.43832C14.6246 7.22763 14.7345 6.94621 14.7345 6.64588C14.7345 6.34555 14.6246 6.06407 14.4266 5.85512L13.4595 4.82623C13.2615 4.61375 12.997 4.49672 12.7148 4.49672C12.7148 4.49672 12.7148 4.49672 12.7147 4.49672C12.4325 4.49672 12.1679 4.61369 11.9715 4.82437L11.915 4.88441C11.5889 4.70064 11.2479 4.55012 10.8949 4.43428V4.35056C10.8949 3.73293 10.4233 3.23047 9.84372 3.23047H8.47351C7.89391 3.23047 7.42234 3.73293 7.42234 4.35056V4.43428C7.06936 4.55018 6.7283 4.70064 6.40219 4.88441L6.34576 4.82437C6.14707 4.61303 5.88306 4.49672 5.60203 4.49672C5.6013 4.49672 5.60063 4.49672 5.59989 4.49672C5.31881 4.49731 5.05531 4.61429 4.85971 4.82413L3.88908 5.85512C3.69123 6.06568 3.58225 6.34645 3.58225 6.64588C3.58225 6.94525 3.69123 7.22602 3.88908 7.43652L3.94652 7.4977C3.77335 7.84443 3.63188 8.20689 3.5234 8.58215H3.44375C2.86415 8.58215 2.39258 9.08389 2.39258 9.70057V11.1584C2.39258 11.7761 2.86415 12.2786 3.44375 12.2786H3.5234C3.63188 12.6535 3.77307 13.0156 3.94607 13.3621L3.88745 13.4242C3.48152 13.8597 3.48152 14.5683 3.88942 15.0059L4.85937 16.0362C5.26755 16.4704 5.93354 16.4712 6.34576 16.0362L6.40213 15.9762C6.72869 16.1601 7.0697 16.3104 7.42234 16.4257V16.5102C7.42234 17.1268 7.89391 17.6286 8.47351 17.6286H9.84372C10.4233 17.6286 10.8949 17.1268 10.8949 16.5102V16.4257C11.2475 16.3104 11.5886 16.1602 11.9151 15.9762L11.9715 16.0362C12.1694 16.2468 12.4333 16.3627 12.7147 16.3627C12.9961 16.3627 13.2601 16.2467 13.4579 16.0362L14.4266 15.0056C14.6252 14.7943 14.7345 14.5131 14.7345 14.214C14.7345 13.9149 14.6252 13.6338 14.4266 13.4225L14.3703 13.3626C14.5438 13.0148 14.6853 12.6525 14.7937 12.2786H14.8735C15.4531 12.2786 15.9247 11.7761 15.9247 11.1585V9.70063C15.9248 9.08383 15.4532 8.58215 14.8735 8.58215ZM14.8006 11.0825H14.3621C14.0992 11.0825 13.8714 11.2764 13.8137 11.5494C13.695 12.1114 13.4859 12.6469 13.1923 13.141C13.0519 13.3773 13.0842 13.6856 13.27 13.8834L13.5808 14.2139L12.7147 15.1354L12.4047 14.8056C12.2188 14.608 11.9292 14.5737 11.7069 14.723C11.2449 15.0337 10.7412 15.2556 10.2098 15.3824C9.95315 15.4436 9.77071 15.686 9.77071 15.9659V16.4325H8.54641V15.9659C8.54641 15.686 8.36402 15.4437 8.10733 15.3824C7.57589 15.2556 7.07217 15.0337 6.61021 14.723C6.38814 14.5737 6.09839 14.6079 5.9124 14.8056L5.60237 15.1355L4.73488 14.2141L5.0462 13.8843C5.23309 13.6862 5.26547 13.3767 5.12411 13.1398C4.83178 12.6502 4.62297 12.1151 4.50342 11.5493C4.44575 11.2764 4.21794 11.0825 3.95501 11.0825H3.51654V9.77807H3.95501C4.21794 9.77807 4.44569 9.58419 4.50342 9.31119C4.62297 8.74547 4.83178 8.21036 5.12411 7.72076C5.26524 7.4843 5.2332 7.17531 5.0471 6.97724L4.73561 6.6457L5.60237 5.72499L5.9124 6.05486C6.09833 6.25262 6.38814 6.28683 6.61015 6.1375C7.07133 5.82731 7.5755 5.60485 8.10868 5.47609C8.3647 5.41432 8.54636 5.17218 8.54636 4.8929V4.42633H9.77065V4.8929C9.77065 5.17218 9.95231 5.41432 10.2083 5.47609C10.7415 5.60479 11.2457 5.82731 11.7069 6.1375C11.9288 6.28683 12.2187 6.2525 12.4046 6.05486L12.7146 5.72505L13.5799 6.64582L13.269 6.9782C13.0839 7.17602 13.0521 7.48365 13.1922 7.71956C13.4858 8.21371 13.6948 8.74918 13.8136 9.31114C13.8713 9.58407 14.0991 9.77801 14.362 9.77801H14.8005V11.0825H14.8006Z" fill="#E3E8EE"/>
<path d="M12.4318 8.65864C12.4114 8.47762 12.3113 8.31161 12.1644 8.21742L9.44953 6.47646C9.27102 6.362 9.04776 6.36206 8.86936 6.47634L6.1529 8.2173C5.98653 8.32393 5.88086 8.52289 5.88086 8.72956V12.1318C5.88086 12.3415 5.98411 12.5359 6.1529 12.6441L8.86936 14.385C9.0454 14.4979 9.27338 14.4978 9.44953 14.3849L12.1644 12.644C12.3331 12.5357 12.4363 12.3414 12.4363 12.1318V8.72956C12.4362 8.70606 12.4344 8.68202 12.4318 8.65864ZM9.15928 7.6868L10.7854 8.72956L9.15928 9.77233L7.53227 8.72956L9.15928 7.6868ZM7.00499 9.78794L8.59732 10.8085V12.8145L7.00499 11.7939V9.78794ZM11.3121 11.7941L9.7214 12.8142V10.8083L11.3121 9.7883V11.7941Z" fill="#E3E8EE"/>
<path d="M20.2017 5.67065H25.2953C25.6056 5.67065 25.8573 5.40286 25.8573 5.07263C25.8573 4.7424 25.6056 4.47461 25.2953 4.47461H20.2017C19.8913 4.47461 19.6396 4.7424 19.6396 5.07263C19.6396 5.40286 19.8913 5.67065 20.2017 5.67065Z" fill="#E3E8EE"/>
<path d="M17.6782 5.67065H17.6814C17.9918 5.67065 18.2419 5.40286 18.2419 5.07263C18.2419 4.7424 17.9886 4.47461 17.6783 4.47461C17.3679 4.47461 17.1162 4.7424 17.1162 5.07263C17.1162 5.40286 17.3678 5.67065 17.6782 5.67065Z" fill="#E3E8EE"/>
<path d="M20.1998 8.26147H25.2917C25.6021 8.26147 25.8538 7.99368 25.8538 7.66345C25.8538 7.33322 25.6021 7.06543 25.2917 7.06543H20.1998C19.8894 7.06543 19.6377 7.33322 19.6377 7.66345C19.6377 7.99368 19.8894 8.26147 20.1998 8.26147Z" fill="#E3E8EE"/>
<path d="M17.6764 8.26147H17.678C17.9883 8.26147 18.2392 7.99368 18.2392 7.66345C18.2392 7.33322 17.9868 7.06543 17.6763 7.06543C17.3659 7.06543 17.1143 7.33322 17.1143 7.66345C17.1143 7.99368 17.366 8.26147 17.6764 8.26147Z" fill="#E3E8EE"/>
<path d="M20.1968 10.8513H25.2904C25.6008 10.8513 25.8525 10.5835 25.8525 10.2533C25.8525 9.92307 25.6008 9.65527 25.2904 9.65527H20.1968C19.8865 9.65527 19.6348 9.92307 19.6348 10.2533C19.6348 10.5835 19.8864 10.8513 20.1968 10.8513Z" fill="#E3E8EE"/>
<path d="M17.6733 10.8513H17.6765C17.9869 10.8513 18.237 10.5835 18.237 10.2533C18.237 9.92307 17.9838 9.65527 17.6734 9.65527C17.363 9.65527 17.1113 9.92307 17.1113 10.2533C17.1113 10.5835 17.363 10.8513 17.6733 10.8513Z" fill="#E3E8EE"/>
<path d="M14.4996 19.123C14.1892 19.123 13.9375 19.3908 13.9375 19.7211C13.9375 20.0513 14.1892 20.3191 14.4996 20.3191H14.5028C14.8132 20.3191 15.0633 20.0513 15.0633 19.7211C15.0633 19.3908 14.81 19.123 14.4996 19.123Z" fill="#E3E8EE"/>
</svg>
