<svg width="29" height="37" viewBox="0 0 29 37" fill="none" xmlns="http://www.w3.org/2000/svg">
<path d="M23.891 15.3847V2.50906C23.891 1.12552 22.833 0 21.5327 0H2.35821C1.05785 0 0 1.12552 0 2.50906V29.2649C0 30.6485 1.05785 31.774 2.35821 31.774H16.8323V35.818C16.8323 36.7016 17.7316 37.2621 18.457 36.8212L21.7191 34.8379C25.322 37.0284 25.1336 36.9734 25.5199 36.9734C26.1196 36.9734 26.6058 36.4553 26.6058 35.818V27.9448C30.471 23.994 28.94 17.126 23.891 15.3847ZM2.35821 29.4632C2.25546 29.4632 2.17191 29.3743 2.17191 29.2649V2.50906C2.17191 2.39973 2.25546 2.31084 2.35821 2.31084H21.5327C21.6355 2.31084 21.7191 2.39973 21.7191 2.50906V15.0204C17.8269 15.0204 14.6604 18.3895 14.6604 22.5307C14.6604 24.6558 15.4944 26.5773 16.8323 27.9448V29.4632H2.35821ZM24.4339 33.827L22.2578 32.5039C21.9239 32.3009 21.5141 32.3009 21.1802 32.5039L19.0041 33.827V29.4628C20.7357 30.2334 22.6999 30.2344 24.4339 29.4628L24.4339 33.827ZM21.7191 27.73C19.0245 27.73 16.8323 25.3976 16.8323 22.5307C16.8323 19.6637 19.0245 17.3313 21.7191 17.3313C24.4136 17.3313 26.6058 19.6637 26.6058 22.5307C26.6058 25.3976 24.4136 27.73 21.7191 27.73Z" fill="#E3E8EE"/>
<path d="M21.1749 25.4912C20.7507 25.4912 20.6967 25.3844 18.9447 24.1416C18.4456 23.7876 18.3107 23.0703 18.6435 22.5393C18.9762 22.0084 19.6504 21.8649 20.1494 22.2189L20.8748 22.7334L22.4444 20.2285C22.777 19.6975 23.4514 19.5541 23.9503 19.908C24.4494 20.262 24.5842 20.9794 24.2515 21.5103L22.0796 24.9766C21.8702 25.3105 21.5258 25.4912 21.1749 25.4912Z" fill="#E3E8EE"/>
<path d="M15.7462 8.08818H6.51564C5.91592 8.08818 5.42969 7.57084 5.42969 6.93276C5.42969 6.29468 5.91592 5.77734 6.51564 5.77734H15.7462C16.346 5.77734 16.8322 6.29468 16.8322 6.93276C16.8322 7.57084 16.346 8.08818 15.7462 8.08818Z" fill="#E3E8EE"/>
<path d="M15.7462 12.7093H6.51564C5.91592 12.7093 5.42969 12.1919 5.42969 11.5539C5.42969 10.9158 5.91592 10.3984 6.51564 10.3984H15.7462C16.346 10.3984 16.8322 10.9158 16.8322 11.5539C16.8322 12.1919 16.346 12.7093 15.7462 12.7093Z" fill="#E3E8EE"/>
<path d="M11.9454 17.3313H6.51564C5.91592 17.3313 5.42969 16.814 5.42969 16.1759C5.42969 15.5378 5.91592 15.0205 6.51564 15.0205H11.9454C12.5451 15.0205 13.0314 15.5378 13.0314 16.1759C13.0314 16.814 12.5451 17.3313 11.9454 17.3313Z" fill="#E3E8EE"/>
</svg>
