<svg width="29" height="31" viewBox="0 0 29 31" fill="none" xmlns="http://www.w3.org/2000/svg">
<path d="M25.7977 19.95C24.3854 19.95 23.1922 20.9633 22.8242 22.3421H19.8398V18.8404H22.887C26.1966 18.8404 28.8891 15.9757 28.8891 12.4543C28.8891 9.63102 27.1292 7.1508 24.6307 6.34299C23.8754 3.1254 21.1456 0.817706 17.984 0.817706C16.7584 0.817706 15.5844 1.15397 14.5483 1.79642C13.451 0.72872 12.0121 0.128906 10.5003 0.128906C7.2576 0.128906 4.60724 2.87926 4.50146 6.30245C1.93501 7.0657 0.111328 9.56584 0.111328 12.4543C0.111328 15.9757 2.80385 18.8404 6.11346 18.8404H9.16059V22.3421H6.17624C5.80826 20.9633 4.61499 19.95 3.20269 19.95C1.49811 19.95 0.111328 21.4255 0.111328 23.2391C0.111328 25.0528 1.49811 26.5283 3.20269 26.5283C4.61499 26.5283 5.8082 25.515 6.17624 24.1362H10.0037C10.4693 24.1362 10.8468 23.7345 10.8468 23.2391V18.8404H13.6571V24.2615C12.3612 24.653 11.4089 25.9226 11.4089 27.4253C11.4089 29.2389 12.7956 30.7144 14.5002 30.7144C16.2048 30.7144 17.5916 29.2389 17.5916 27.4253C17.5916 25.9226 16.6393 24.6531 15.3433 24.2615V18.8404H18.1536V23.2391C18.1536 23.7345 18.5311 24.1362 18.9967 24.1362H22.8242C23.1922 25.515 24.3854 26.5283 25.7977 26.5283C27.5023 26.5283 28.8891 25.0528 28.8891 23.2391C28.8891 21.4255 27.5023 19.95 25.7977 19.95ZM3.20269 24.7342C2.42788 24.7342 1.79753 24.0635 1.79753 23.2391C1.79753 22.4148 2.42788 21.7441 3.20269 21.7441C3.9775 21.7441 4.60786 22.4148 4.60786 23.2391C4.60786 24.0635 3.9775 24.7342 3.20269 24.7342ZM15.9054 27.4253C15.9054 28.2497 15.275 28.9203 14.5002 28.9203C13.7254 28.9203 13.0951 28.2497 13.0951 27.4253C13.0951 26.6009 13.7254 25.9302 14.5002 25.9302C15.275 25.9302 15.9054 26.6009 15.9054 27.4253ZM6.11346 17.0464C3.73368 17.0464 1.79753 14.9864 1.79753 12.4543C1.79753 10.1912 3.38295 8.23794 5.48524 7.91082C5.92888 7.84181 6.24409 7.41542 6.20272 6.94047C6.19052 6.80036 6.18434 6.65719 6.18434 6.51492C6.18434 3.98297 8.12049 1.92303 10.5003 1.92303C11.77 1.92303 12.9674 2.51028 13.7853 3.53421C14.0724 3.89368 14.5722 3.95504 14.9288 3.67469C15.813 2.97931 16.8695 2.61177 17.984 2.61177C20.5486 2.61177 22.6813 4.61388 23.08 7.21831C23.1364 7.58657 23.4012 7.87925 23.7449 7.95328C25.7486 8.38487 27.2029 10.2778 27.2029 12.4543C27.2029 14.9864 25.2667 17.0464 22.8869 17.0464H6.11346ZM25.7977 24.7342C25.0229 24.7342 24.3926 24.0635 24.3926 23.2391C24.3926 22.4148 25.0229 21.7441 25.7977 21.7441C26.5726 21.7441 27.2029 22.4148 27.2029 23.2391C27.2029 24.0635 26.5726 24.7342 25.7977 24.7342Z" fill="#E3E8EE"/>
</svg>
