<svg width="37" height="32" viewBox="0 0 37 32" fill="none" xmlns="http://www.w3.org/2000/svg">
<path d="M33.4583 16.0486C33.647 14.6726 33.219 13.2662 32.2811 12.2681C31.2292 11.149 29.7208 10.7214 28.3084 11.103C26.4807 8.48837 23.6126 6.94453 20.5296 6.94453C20.385 6.94453 20.2397 6.94837 20.0946 6.95521C19.9992 6.66158 19.887 6.37463 19.7573 6.09622L20.2177 5.60644C20.4999 5.30619 20.4999 4.81934 20.2177 4.51901L18.1108 2.27733C17.8285 1.97716 17.3711 1.97716 17.0887 2.27733L16.6284 2.76719C16.3516 2.62118 16.0661 2.49531 15.7733 2.3902V1.69759C15.7733 1.27302 15.4497 0.928711 15.0507 0.928711H12.0711C11.6721 0.928711 11.3484 1.27302 11.3484 1.69759V2.3902C11.0557 2.49531 10.7702 2.62118 10.4934 2.76719L10.0331 2.27733C9.7508 1.97716 9.29336 1.97716 9.01102 2.27733L6.90411 4.51901C6.62192 4.81926 6.62192 5.30612 6.90411 5.60644L7.36452 6.09622C7.22728 6.3907 7.10899 6.69449 7.0102 7.00596H6.3593C5.96025 7.00596 5.63665 7.35027 5.63665 7.77484V10.945C5.63665 11.3696 5.96025 11.7139 6.3593 11.7139H7.0102C7.09815 11.991 7.20228 12.2617 7.32072 12.5255C6.13759 12.8192 5.06336 13.51 4.26591 14.5006C3.40928 15.5649 2.92343 16.9129 2.88925 18.3122C1.07264 19.6794 0 21.8702 0 24.2563C0 28.2733 3.07165 31.5415 6.84717 31.5415H15.248C15.6471 31.5415 15.9707 31.1972 15.9707 30.7726C15.9707 30.348 15.6471 30.0037 15.248 30.0037H6.84717C3.86852 30.0037 1.44531 27.4254 1.44531 24.2563C1.44531 22.2577 2.39951 20.4325 3.99781 19.3741C4.22002 19.2269 4.3501 18.9633 4.33782 18.6851C4.33428 18.6059 4.33261 18.5357 4.33261 18.4705C4.33261 16.5885 5.39195 14.9538 6.95802 14.2581L9.01109 16.4425C9.29336 16.7427 9.7508 16.7427 10.0331 16.4425L10.4935 15.9527C10.7703 16.0987 11.0558 16.2246 11.3485 16.3297V17.0223C11.3485 17.4469 11.6721 17.7912 12.0712 17.7912H15.0508C15.4498 17.7912 15.7734 17.4469 15.7734 17.0223V16.3297C16.0662 16.2246 16.3517 16.0987 16.6285 15.9527L17.0888 16.4425C17.3711 16.7427 17.8285 16.7427 18.1108 16.4425L20.2178 14.2009C20.5 13.9006 20.5 13.4138 20.2178 13.1134L19.7573 12.6236C19.8946 12.3292 20.0129 12.0254 20.1117 11.7139H20.7626C21.1616 11.7139 21.4852 11.3696 21.4852 10.945V8.54173C23.893 8.83828 26.0648 10.2458 27.4208 12.4339C27.6109 12.7405 27.9782 12.8612 28.2979 12.7222C29.3177 12.2783 30.4801 12.5268 31.2591 13.3555C31.9587 14.0998 32.224 15.192 31.9517 16.206C31.8604 16.5458 31.9986 16.9079 32.2866 17.0839C34.3024 18.3159 35.5547 20.6159 35.5547 23.0861C35.5547 26.9005 32.6381 30.0037 29.053 30.0037H21.752C21.3529 30.0037 21.0293 30.348 21.0293 30.7726C21.0293 31.1972 21.3529 31.5415 21.752 31.5415H29.053C33.435 31.5415 37 27.7484 37 23.0861C37 20.2561 35.6555 17.6091 33.4583 16.0486ZM20.0399 10.1761H19.5703C19.238 10.1761 18.9486 10.4173 18.8688 10.7606C18.7376 11.3255 18.5277 11.8644 18.2449 12.3624C18.0731 12.6652 18.1174 13.0535 18.3524 13.3036L18.6847 13.6572L17.5998 14.8115L17.2675 14.458C17.0324 14.208 16.6674 14.1609 16.3828 14.3436C15.9148 14.6444 15.4083 14.8677 14.8773 15.0073C14.5547 15.0922 14.328 15.4002 14.328 15.7538V16.2535H12.7938V15.7538C12.7938 15.4002 12.5671 15.0922 12.2445 15.0073C11.7135 14.8678 11.207 14.6444 10.739 14.3436C10.4545 14.1607 10.0894 14.2079 9.85429 14.458L9.52201 14.8115L8.43708 13.6572L8.76936 13.3036C9.00437 13.0535 9.04874 12.6651 8.87689 12.3624C8.59412 11.8644 8.38426 11.3255 8.25302 10.7606C8.17324 10.4173 7.88382 10.1761 7.55147 10.1761H7.08189V8.54373H7.55147C7.88382 8.54373 8.17324 8.30253 8.25302 7.9593C8.38419 7.39432 8.59412 6.85549 8.87689 6.35749C9.04874 6.0547 9.00437 5.66634 8.76936 5.41622L8.43708 5.06269L9.52201 3.90836L9.85429 4.2619C10.0894 4.51194 10.4544 4.55922 10.739 4.3763C11.207 4.07544 11.7135 3.85216 12.2445 3.71253C12.5671 3.62764 12.7938 3.31971 12.7938 2.9661V2.4664H14.328V2.9661C14.328 3.31971 14.5547 3.62764 14.8773 3.71253C15.4083 3.85208 15.9148 4.07544 16.3828 4.3763C16.6674 4.55915 17.0324 4.51194 17.2675 4.2619L17.5998 3.90836L18.6847 5.06269L18.3524 5.41622C18.1174 5.66634 18.0731 6.05478 18.2449 6.35749C18.5277 6.85549 18.7375 7.39432 18.8688 7.9593C18.9486 8.30253 19.238 8.54373 19.5703 8.54373H20.0399V10.1761Z" fill="#2B3743"/>
<path d="M8.21219 26.5914C7.56007 26.5914 6.93179 26.311 6.53158 25.8411C6.26348 25.5263 5.80654 25.5026 5.51083 25.7877C5.21505 26.0728 5.19264 26.5591 5.46061 26.8737C6.13029 27.6599 7.15885 28.1292 8.21219 28.1292C9.51738 28.1292 10.6129 27.246 10.8171 26.0291C10.9702 25.1163 10.5772 23.9226 9.01456 23.3093C8.2213 22.998 7.48375 22.6587 7.27035 22.5592C7.06049 22.3867 7.06714 22.1425 7.0808 22.0416C7.09887 21.9076 7.18927 21.5803 7.63732 21.4368C8.57193 21.1372 9.43146 21.8621 9.45408 21.8813C9.75947 22.1513 10.2129 22.1084 10.4689 21.7845C10.7257 21.4595 10.6862 20.9745 10.3807 20.7012C10.3218 20.6486 8.92105 19.4192 7.22042 19.9643C6.36978 20.2369 5.76802 20.9492 5.65016 21.8231C5.53981 22.6412 5.87295 23.428 6.51973 23.8766C6.5516 23.8987 6.58513 23.9182 6.61996 23.9347C6.65667 23.9522 7.53029 24.3658 8.51433 24.7521C8.81026 24.8682 9.48833 25.1988 9.39431 25.7588C9.32559 26.1681 8.86461 26.5914 8.21219 26.5914Z" fill="#2B3743"/>
<path d="M29.0901 26.5914C28.438 26.5914 27.8097 26.311 27.4095 25.8411C27.1414 25.5263 26.6845 25.5026 26.3888 25.7877C26.093 26.0728 26.0706 26.5591 26.3385 26.8737C27.0082 27.6599 28.0368 28.1292 29.0901 28.1292C30.3953 28.1292 31.4908 27.246 31.695 26.0291C31.8481 25.1163 31.4551 23.9226 29.8925 23.3093C29.0992 22.998 28.3617 22.6587 28.1483 22.5592C27.9384 22.3867 27.9451 22.1425 27.9587 22.0416C27.9768 21.9076 28.0672 21.5803 28.5152 21.4368C29.4501 21.1372 30.3094 21.8621 30.332 21.8813C30.6373 22.1513 31.0909 22.1084 31.3468 21.7845C31.6037 21.4595 31.5641 20.9745 31.2586 20.7012C31.1998 20.6486 29.799 19.4192 28.0983 19.9643C27.2477 20.2369 26.646 20.9492 26.5281 21.8231C26.4177 22.6412 26.7509 23.428 27.3977 23.8766C27.4295 23.8987 27.4631 23.9182 27.4979 23.9347C27.5346 23.9522 28.4082 24.3658 29.3923 24.7521C29.6882 24.8682 30.3662 25.1988 30.2722 25.7588C30.2034 26.168 29.7425 26.5914 29.0901 26.5914Z" fill="#2B3743"/>
<path d="M17.7861 22.7679C17.7861 22.3433 17.4625 21.999 17.0635 21.999C16.7053 21.999 16.4087 22.2767 16.3515 22.6407C15.9616 22.4141 15.5147 22.2853 15.04 22.2853C13.5259 22.2853 12.2939 23.596 12.2939 25.207C12.2939 26.8181 13.5259 28.1288 15.04 28.1288C15.5462 28.1288 16.0205 27.9817 16.4281 27.7265C16.5505 27.9661 16.7892 28.1288 17.0635 28.1288C17.4625 28.1288 17.7861 27.7845 17.7861 27.3599V22.7679ZM15.04 26.591C14.3228 26.591 13.7393 25.9701 13.7393 25.207C13.7393 24.4439 14.3228 23.823 15.04 23.823C15.7573 23.823 16.3408 24.4439 16.3408 25.207C16.3408 25.9701 15.7573 26.591 15.04 26.591Z" fill="#2B3743"/>
<path d="M23.3656 27.7265C23.488 27.9661 23.7267 28.1288 24.001 28.1288C24.4 28.1288 24.7236 27.7845 24.7236 27.3599V22.7679C24.7236 22.3433 24.4 21.999 24.001 21.999C23.6428 21.999 23.3462 22.2767 23.289 22.6407C22.8991 22.4141 22.4522 22.2853 21.9775 22.2853C20.4634 22.2853 19.2314 23.596 19.2314 25.207C19.2314 26.8181 20.4634 28.1288 21.9775 28.1288C22.4838 28.1288 22.958 27.9817 23.3656 27.7265ZM20.6768 25.207C20.6768 24.4439 21.2603 23.823 21.9775 23.823C22.6948 23.823 23.2783 24.4439 23.2783 25.207C23.2783 25.9701 22.6948 26.591 21.9775 26.591C21.2603 26.591 20.6768 25.9701 20.6768 25.207Z" fill="#2B3743"/>
<path d="M13.5609 5.8418C11.7374 5.8418 10.2539 7.42024 10.2539 9.36043C10.2539 11.3006 11.7374 12.879 13.5609 12.879C15.3845 12.879 16.868 11.3006 16.868 9.36043C16.868 7.42024 15.3845 5.8418 13.5609 5.8418ZM13.5609 11.3412C12.5344 11.3412 11.6992 10.4526 11.6992 9.36043C11.6992 8.26816 12.5344 7.37956 13.5609 7.37956C14.5875 7.37956 15.4227 8.26816 15.4227 9.36043C15.4227 10.4526 14.5875 11.3412 13.5609 11.3412Z" fill="#2B3743"/>
<path d="M18.5 31.5417C18.8991 31.5417 19.2227 31.1974 19.2227 30.7728C19.2227 30.3481 18.8991 30.0039 18.5 30.0039C18.1009 30.0039 17.7773 30.3481 17.7773 30.7728C17.7773 31.1974 18.1009 31.5417 18.5 31.5417Z" fill="#2B3743"/>
</svg>
